<?xml version="1.0" encoding="iso-8859-1"?>
<!-- Generator: Adobe Illustrator 19.0.0, SVG Export Plug-In . SVG Version: 6.00 Build 0)  -->
<svg version="1.1" id="Capa_1" xmlns="http://www.w3.org/2000/svg" xmlns:xlink="http://www.w3.org/1999/xlink" x="0px" y="0px"
	 viewBox="0 0 512 512" style="enable-background:new 0 0 512 512;" xml:space="preserve">
<circle style="fill:#FFE17D;" cx="255.999" cy="255.339" r="247.839"/>
<circle style="fill:#FFFFFF;" cx="168.059" cy="215.369" r="63.959"/>
<path style="fill:#FFD164;" d="M291.977,467.205c-136.878,0-247.84-110.962-247.84-247.84c0-59.276,20.835-113.668,55.547-156.316
	C43.848,108.492,8.16,177.738,8.16,255.342c0,136.878,110.961,247.84,247.84,247.84c77.604,0,146.85-35.69,192.294-91.524
	C405.646,446.369,351.252,467.205,291.977,467.205z"/>
<circle style="fill:#5A4650;" cx="188.039" cy="179.389" r="19.987"/>
<circle style="fill:#FFFFFF;" cx="343.938" cy="215.369" r="63.959"/>
<circle style="fill:#5A4650;" cx="363.928" cy="179.389" r="19.987"/>
<path d="M15.109,248.713c1.833-61.604,26.857-119.542,70.459-163.145c43.603-43.603,101.542-68.626,163.145-70.459
	c61.332-1.836,120.401,19.43,166.327,59.852c3.109,2.737,7.849,2.436,10.585-0.675c2.737-3.109,2.435-7.848-0.675-10.585
	C376.16,20.758,313.407-1.823,248.267,0.115c-65.44,1.948-126.988,28.529-173.305,74.847
	C28.644,121.279,2.063,182.826,0.115,248.267C-1.824,313.413,20.758,376.161,63.7,424.95c1.482,1.685,3.552,2.545,5.633,2.545
	c1.76,0,3.527-0.616,4.952-1.87c3.109-2.737,3.412-7.476,0.675-10.585C34.538,369.115,13.283,310.046,15.109,248.713z"/>
<path d="M448.3,87.051c-2.736-3.109-7.476-3.411-10.585-0.675c-3.109,2.737-3.412,7.476-0.675,10.585
	c40.421,45.926,61.677,104.994,59.852,166.327c-1.833,61.603-26.856,119.542-70.459,163.145s-101.541,68.626-163.145,70.459
	c-61.334,1.828-120.401-19.43-166.327-59.851c-3.108-2.736-7.848-2.435-10.585,0.675c-2.737,3.109-2.435,7.848,0.675,10.585
	C133.904,489.539,193.63,512,255.992,512c2.576,0,5.158-0.039,7.742-0.116c65.441-1.948,126.988-28.529,173.305-74.846
	c46.318-46.317,72.899-107.865,74.847-173.305C513.823,198.587,491.242,135.841,448.3,87.051z"/>
<path d="M231.92,366.371h72.154c4.142,0,7.5-3.358,7.5-7.5c0-4.142-3.358-7.5-7.5-7.5H231.92c-4.142,0-7.5,3.358-7.5,7.5
	C224.42,363.013,227.778,366.371,231.92,366.371z"/>
<path d="M207.832,254.614c-18.287,18.287-46.586,21.886-68.82,8.753c-3.567-2.108-8.165-0.923-10.272,2.643
	c-2.107,3.567-0.923,8.166,2.643,10.272c11.321,6.687,23.88,9.946,36.36,9.945c18.528-0.001,36.876-7.187,50.696-21.007
	c13.53-13.53,20.982-31.52,20.982-50.655c0-19.134-7.452-37.124-20.982-50.654s-31.52-20.982-50.655-20.982
	c-19.134,0-37.124,7.452-50.654,20.982c-23.12,23.12-27.674,58.91-11.074,87.035c2.105,3.568,6.705,4.751,10.271,2.647
	c3.567-2.105,4.752-6.704,2.647-10.271c-13.121-22.231-9.517-50.524,8.763-68.804c11.464-11.464,26.66-16.961,41.713-16.522
	c-5.621,5.046-9.165,12.362-9.165,20.493c0,15.187,12.355,27.542,27.542,27.542c13.574,0,24.879-9.873,27.128-22.814
	C229.578,205.206,227.206,235.239,207.832,254.614z M187.826,191.031c-6.916,0-12.542-5.626-12.542-12.542
	c0-6.916,5.626-12.542,12.542-12.542c6.916,0,12.543,5.626,12.543,12.542C200.369,185.405,194.742,191.031,187.826,191.031z"/>
<path d="M394.813,265.22c13.53-13.53,20.982-31.52,20.982-50.655c0-19.134-7.452-37.124-20.982-50.654
	c-13.53-13.53-31.52-20.982-50.655-20.982c-19.134,0-37.124,7.452-50.654,20.982c-23.12,23.12-27.674,58.91-11.075,87.035
	c2.105,3.568,6.705,4.751,10.271,2.647c3.567-2.105,4.752-6.704,2.647-10.271c-13.121-22.231-9.517-50.524,8.763-68.804
	c11.464-11.464,26.66-16.961,41.713-16.522c-5.621,5.046-9.165,12.362-9.165,20.493c0,15.187,12.356,27.542,27.543,27.542
	c13.574,0,24.879-9.874,27.128-22.815c14.623,21.989,12.252,52.022-7.123,71.397c-18.287,18.287-46.586,21.886-68.821,8.753
	c-3.566-2.106-8.165-0.923-10.272,2.643c-2.106,3.567-0.923,8.166,2.643,10.272c11.321,6.687,23.88,9.946,36.36,9.945
	C362.645,286.226,380.993,279.04,394.813,265.22z M364.201,191.031c-6.916,0-12.543-5.626-12.543-12.542
	c0-6.916,5.627-12.542,12.543-12.542c6.916,0,12.542,5.626,12.542,12.542C376.743,185.405,371.117,191.031,364.201,191.031z"/>
<g>
</g>
<g>
</g>
<g>
</g>
<g>
</g>
<g>
</g>
<g>
</g>
<g>
</g>
<g>
</g>
<g>
</g>
<g>
</g>
<g>
</g>
<g>
</g>
<g>
</g>
<g>
</g>
<g>
</g>
</svg>
