<?xml version="1.0" encoding="iso-8859-1"?>
<!-- Generator: Adobe Illustrator 19.0.0, SVG Export Plug-In . SVG Version: 6.00 Build 0)  -->
<svg version="1.1" id="Capa_1" xmlns="http://www.w3.org/2000/svg" xmlns:xlink="http://www.w3.org/1999/xlink" x="0px" y="0px"
	 viewBox="0 0 511.999 511.999" style="enable-background:new 0 0 511.999 511.999;" xml:space="preserve">
<circle style="fill:#FFE17D;" cx="256.002" cy="256.002" r="248.502"/>
<path style="fill:#FFD164;" d="M292.077,468.429c-137.244,0-248.502-111.259-248.502-248.502
	c0-59.433,20.891-113.972,55.695-156.734C43.286,108.758,7.501,178.19,7.501,256.001c0,137.243,111.258,248.502,248.502,248.502
	c77.811,0,147.243-35.784,192.808-91.77C406.049,447.537,351.511,468.429,292.077,468.429z"/>
<path style="fill:#E6646E;" d="M387.309,446.146c-17.281-21.726-58.195-80.057-34.861-119.707
	c9.02-15.328,26.77-24.073,44.44-22.054c14.351,1.64,25.865,9.179,33.09,19.552c2.961,4.252,8.327,6.009,13.23,4.333
	c11.961-4.088,25.705-3.354,38.245,3.815c15.44,8.826,24.575,26.379,22.779,44.073c-4.646,45.771-72.143,68.592-98.929,75.883
	C398.676,453.844,391.585,451.522,387.309,446.146z"/>
<path style="fill:#DC4655;" d="M384.562,334.455c7.228-12.283,20.079-20.225,33.985-21.902c-6.107-4.274-13.391-7.224-21.66-8.168
	c-17.669-2.019-35.419,6.726-44.439,22.054c-23.335,39.65,17.58,97.981,34.861,119.707c4.275,5.375,11.367,7.698,17.993,5.894
	c2.925-0.796,6.402-1.813,10.161-2.989C396.717,424.336,362.858,371.335,384.562,334.455z"/>
<path style="fill:#7D5046;" d="M171.834,280.049L171.834,280.049c-11.068,0-20.04-8.972-20.04-20.04v-16.032
	c0-11.068,8.972-20.04,20.04-20.04l0,0c11.068,0,20.04,8.972,20.04,20.04v16.032C191.874,271.077,182.902,280.049,171.834,280.049z"
	/>
<path style="fill:#9C6846;" d="M191.874,243.976c0-12.379-11.222-22.135-24.048-19.651v15.643c0,13.282,10.767,24.048,24.048,24.048
	l0,0V243.976z"/>
<path d="M171.821,231.432c4.142,0,7.5-3.358,7.5-7.5c0-4.142-3.358-7.5-7.5-7.5c-15.187,0-27.542,12.355-27.542,27.542v16.034
	c0,15.187,12.355,27.542,27.542,27.542c15.187,0,27.542-12.355,27.542-27.542v-12.025c0-4.142-3.358-7.5-7.5-7.5s-7.5,3.358-7.5,7.5
	v12.025c0,6.916-5.626,12.542-12.542,12.542c-6.916,0-12.542-5.626-12.542-12.542v-16.034
	C159.279,237.059,164.906,231.432,171.821,231.432z"/>
<path d="M15.109,248.713c1.833-61.602,26.856-119.542,70.459-163.144S187.11,16.944,248.712,15.11
	c61.333-1.83,120.401,19.43,166.326,59.85c3.109,2.737,7.849,2.436,10.585-0.675c2.737-3.109,2.435-7.848-0.675-10.585
	C376.159,20.759,313.412-1.818,248.266,0.117C182.826,2.064,121.278,28.645,74.961,74.962S2.063,182.827,0.115,248.267
	C-1.824,313.413,20.757,376.16,63.7,424.949c1.482,1.685,3.552,2.545,5.633,2.545c1.76,0,3.527-0.616,4.952-1.87
	c3.109-2.737,3.412-7.476,0.675-10.585C34.54,369.114,13.283,310.045,15.109,248.713z"/>
<path d="M309.976,260.67c6.76-8.409,16.317-13.232,26.222-13.232c9.905,0,19.462,4.823,26.222,13.232
	c2.595,3.228,7.315,3.742,10.544,1.147c3.229-2.595,3.742-7.316,1.147-10.544c-9.621-11.97-23.44-18.835-37.913-18.835
	s-28.292,6.865-37.914,18.835c-2.595,3.229-2.082,7.949,1.147,10.544c1.385,1.113,3.045,1.655,4.694,1.655
	C306.32,263.472,308.494,262.514,309.976,260.67z"/>
<path d="M384.294,223.388c2.751,0,5.4-1.52,6.714-4.147c1.853-3.705,0.351-8.21-3.354-10.062
	c-1.374-0.687-34.218-16.826-83.524-16.826c-4.142,0-7.5,3.358-7.5,7.5s3.358,7.5,7.5,7.5c45.559,0,76.52,15.095,76.816,15.242
	C382.023,223.133,383.167,223.388,384.294,223.388z"/>
<path d="M199.128,157.849c-1.091-3.996-5.218-6.35-9.211-5.259c-44.084,12.042-74.126,40.651-75.382,41.863
	c-2.982,2.875-3.069,7.623-0.194,10.604c1.472,1.527,3.435,2.295,5.4,2.295c1.873,0,3.749-0.698,5.204-2.101
	c0.28-0.27,28.499-27.15,68.924-38.192C197.865,165.969,200.219,161.845,199.128,157.849z"/>
<path d="M274.502,358.752c13.645-4.694,29.111-10.015,29.111-23.64c0-13.624-15.466-18.943-29.112-23.636
	c-5.381-1.851-10.945-3.764-14.823-5.898c-3.63-1.998-8.189-0.675-10.187,2.954c-1.997,3.629-0.674,8.189,2.955,10.187
	c5.01,2.758,11.195,4.885,17.177,6.942c5.194,1.786,18.99,6.531,18.99,9.451c0,2.923-13.797,7.669-18.991,9.456
	c-13.645,4.694-29.111,10.015-29.111,23.64c0,13.636,15.464,18.964,29.107,23.665c5.684,1.958,18.994,6.545,18.994,9.483
	c0,2.939-13.311,7.525-18.994,9.483c-6.001,2.068-12.207,4.207-17.227,6.983c-3.625,2.004-4.938,6.568-2.933,10.193
	c1.369,2.475,3.929,3.872,6.57,3.872c1.228,0,2.473-0.302,3.623-0.938c3.879-2.146,9.458-4.068,14.854-5.927
	c13.644-4.701,29.107-10.03,29.107-23.666c0-13.636-15.464-18.964-29.107-23.665c-5.684-1.958-18.994-6.545-18.994-9.483
	C255.511,365.285,269.308,360.538,274.502,358.752z"/>
<path d="M498.922,336.978c28.66-86.234,9.393-181.738-50.623-249.927c-2.736-3.11-7.476-3.411-10.585-0.675
	c-3.109,2.737-3.412,7.476-0.675,10.585c55.144,62.653,73.744,149.81,49.511,229.442c-0.439-0.269-0.88-0.537-1.328-0.793
	c-13.818-7.9-29.586-9.461-44.396-4.401c-1.736,0.593-3.604-0.019-4.651-1.523c-8.945-12.843-22.581-20.911-38.396-22.719
	c-20.53-2.34-41.331,7.983-51.759,25.704c-25.526,43.374,16.294,104.098,35.458,128.192l0,0c2.074,2.607,4.601,4.712,7.404,6.259
	c-40.882,27.018-89.513,41.061-138.963,39.798c-56.39-1.431-110.712-22.697-152.958-59.88c-3.108-2.736-7.848-2.435-10.585,0.675
	c-2.737,3.109-2.435,7.848,0.675,10.585c44.881,39.503,102.588,62.095,162.488,63.615c2.164,0.055,4.322,0.082,6.483,0.082
	c57.306,0,113.211-19.272,158.117-54.622c32.357-9.67,92.88-33.868,97.604-80.419C513.214,362.467,508.29,347.894,498.922,336.978z
	 M496.82,375.442c-4.259,41.961-72.603,63.736-93.447,69.411c-3.751,1.022-7.737-0.285-10.157-3.326l0,0
	c-13.448-16.907-55.663-74.896-34.27-111.247c6.764-11.495,19.635-18.646,32.948-18.646c1.39,0,2.787,0.078,4.18,0.237
	c11.473,1.311,21.343,7.131,27.791,16.389c4.914,7.053,13.679,9.923,21.811,7.144c10.677-3.649,22.077-2.501,32.101,3.229
	C490.655,345.994,498.307,360.786,496.82,375.442z"/>
<g>
</g>
<g>
</g>
<g>
</g>
<g>
</g>
<g>
</g>
<g>
</g>
<g>
</g>
<g>
</g>
<g>
</g>
<g>
</g>
<g>
</g>
<g>
</g>
<g>
</g>
<g>
</g>
<g>
</g>
</svg>
