<svg data-name="Layer 1" xmlns="http://www.w3.org/2000/svg" xmlns:xlink="http://www.w3.org/1999/xlink" viewBox="0 0 324.67 166"><defs><style>.cls-1{fill:none;}.cls-2{clip-path:url(#clip-path);}.cls-3{fill:#93c01f;}.cls-4{fill:#1d1d1b;}.cls-5{fill:#fff;}</style><clipPath><rect class="cls-1" x="32.67" y="32.88" width="256.04" height="94.4"></rect></clipPath></defs><title>esedu2018_logo_SVG</title><g class="cls-2"><path class="cls-3" d="M79.87,127.28a47.2,47.2,0,1,0-47.2-47.2,47.2,47.2,0,0,0,47.2,47.2"></path><path class="cls-4" d="M274.44,91.14c4.19,0,14.2-.75,14.2-15V56.27h-7.82v19c0,9-4.58,8.67-6.38,8.67-1.59,0-6.42.29-6.42-8.67v-19h-7.77V76.15c0,14.24,10,15,14.19,15m-39.5-7.27V63h2.94c6.73,0,9.92,3.93,9.92,10.51s-3.44,10.36-9.92,10.36Zm4.84,6.72c8.31,0,16.08-5.53,16.08-17.08s-7.77-17.24-16.08-17.24H227.12V90.59ZM206.45,76.25h14.4V69.67h-14.4V63h15.79V56.27H198.63V83c.05,5.68,2.69,7.42,8.62,7.62h15V83.87H209a2.24,2.24,0,0,1-2.54-2.54ZM169.8,88.35a26.29,26.29,0,0,0,11.25,2.79c7.37,0,12.7-2.24,13.35-10,.45-7.33-5.33-9.42-12.9-11.86-.6-.2-1.19-.45-1.79-.65-2.59-.79-2.49-2.69-2.49-2.69C177.27,64,179,62.5,183,62.5c2.59,0,5.57.7,10.06,2.29V58.16a23.85,23.85,0,0,0-10-2.44c-8.82,0-13.75,4.39-13.75,10.36,0,1,0,7.33,8,9.77l1.89.69c4,1.25,7.77,2.15,7.32,4.74-.4,2.39-2.29,3-5.43,3a28,28,0,0,1-11.25-2.83Zm-20.52-12.1h14.39V69.67H149.28V63h15.78V56.27h-23.6V83c0,5.68,2.69,7.42,8.61,7.62h15V83.87H151.82a2.23,2.23,0,0,1-2.54-2.54Z"></path><path class="cls-4" d="M285.6,106.49c-1.27,0-2.29-.92-2.29-2.89s1-2.91,2.29-2.91,2.27,1,2.27,2.91-1,2.89-2.27,2.89m0,.78c1.7,0,3.1-1.12,3.1-3.67s-1.4-3.7-3.1-3.7-3.12,1.15-3.12,3.7,1.4,3.67,3.12,3.67m-6.25-6.49v4.45c0,1.56.67,2,2.29,2v-.77c-1.41,0-1.46-.62-1.46-1.28v-4.38h1.44v-.7h-1.44V98l-.83.3v1.81h-1.09v.7Zm-6.16,6a3.64,3.64,0,0,0,1.69.46c1.31,0,2.48-.11,2.59-1.88,0-1.5-1-1.91-2.28-2.36l-.6-.23a1,1,0,0,1-.7-.86c0-.73.54-1.24,1.68-1.18a5.91,5.91,0,0,1,1.55.4v-.88a5.94,5.94,0,0,0-1.52-.38c-1.74-.09-2.52.75-2.55,1.93a1.84,1.84,0,0,0,1.26,1.78l.63.23c.92.32,1.7.64,1.69,1.5-.07,1-.86,1.11-1.75,1.11a3.6,3.6,0,0,1-1.69-.57Zm-2.6-9a.52.52,0,0,0,1,0c0-.31-.13-.51-.52-.51a.45.45,0,0,0-.51.51m.94,2.29h-.84v7h.84Zm-7,1.6a2.23,2.23,0,0,1,1.72-.92c.72,0,2.08.45,2.08,2.93,0,1.82-1.07,2.74-2.12,2.74a3,3,0,0,1-1.68-.61Zm-.07-1.62h-.77v10h.84V106.7a2.82,2.82,0,0,0,1.68.57c1.51,0,2.95-1.19,2.95-3.58,0-3.18-1.92-3.77-2.91-3.77a2.43,2.43,0,0,0-1.72.77ZM259,106.49c-1.26,0-2.28-.92-2.28-2.89s1-2.91,2.28-2.91,2.27,1,2.27,2.91-1,2.89-2.27,2.89m0,.78c1.71,0,3.1-1.12,3.1-3.67s-1.39-3.7-3.1-3.7-3.11,1.15-3.11,3.7,1.39,3.67,3.11,3.67m-5.6-9.48a.52.52,0,0,0,1,0c0-.31-.13-.51-.52-.51a.45.45,0,0,0-.51.51m.94,2.29h-.84v7h.84Zm-4.38.7v4.45c0,1.56.67,2,2.29,2v-.77c-1.42,0-1.46-.62-1.46-1.28v-4.38h1.44v-.7h-1.44V98l-.83.3v1.81h-1.09v.7Zm-4,0v4.45c0,1.56.67,2,2.28,2v-.77c-1.41,0-1.45-.62-1.45-1.28v-4.38h1.44v-.7h-1.44V98l-.83.3v1.81h-1.09v.7Zm-3.09,4.92a3.21,3.21,0,0,1-2,.73c-.94,0-1.26-.56-1.26-1.33s.7-1.43,1.84-1.43a4,4,0,0,1,1.41.22Zm.1,1.43h.73v-4.21c0-2.32-1.06-3-2.24-3a4.64,4.64,0,0,0-2.23.6v.81a4.83,4.83,0,0,1,2.23-.59c.73,0,1.41.54,1.41,2.2v.19a4.89,4.89,0,0,0-1.38-.19c-1.63,0-2.7.75-2.7,2.18,0,1.27.53,2.17,2.09,2.17a3.43,3.43,0,0,0,2-.76Zm-9.9-5.39a2.2,2.2,0,0,1,1.88-1c.81,0,1.61.32,1.61,2.47v3.94h.85v-3.94c0-2.89-1.21-3.27-2.46-3.27a2.73,2.73,0,0,0-2.22.91,2.05,2.05,0,0,0-2.06-.91,3.2,3.2,0,0,0-1.88.75l-.07-.59H228v7h.83v-5.51a2.77,2.77,0,0,1,1.88-.89c.87,0,1.55.32,1.55,1.18v5.22h.85Zm-11.27,0a2.19,2.19,0,0,1,1.88-1c.81,0,1.61.32,1.61,2.47v3.94h.85v-3.94c0-2.89-1.21-3.27-2.46-3.27a2.72,2.72,0,0,0-2.22.91,2.07,2.07,0,0,0-2.07-.91,3.2,3.2,0,0,0-1.87.75l-.08-.59h-.75v7h.83v-5.51a2.77,2.77,0,0,1,1.87-.89c.88,0,1.56.32,1.56,1.18v5.22h.85Zm-7.78,4a3.21,3.21,0,0,1-2,.73c-.94,0-1.26-.56-1.26-1.33s.7-1.43,1.84-1.43a4,4,0,0,1,1.41.22Zm.1,1.43h.73v-4.21c0-2.32-1.06-3-2.24-3a4.64,4.64,0,0,0-2.23.6v.81a4.83,4.83,0,0,1,2.23-.59c.73,0,1.41.54,1.41,2.2v.19a4.89,4.89,0,0,0-1.38-.19c-1.63,0-2.7.75-2.7,2.18,0,1.27.53,2.17,2.09,2.17a3.43,3.43,0,0,0,2-.76Zm-12.73,0v-5.64a3.4,3.4,0,0,1,1.83-.74c.91,0,1.6.51,1.6,2v4.34h.84v-4.34c0-2.17-1.05-2.87-2.44-2.87a3.37,3.37,0,0,0-1.84.73l-.07-.57h-.75v7Zm-5.47-.64c-1.27,0-2.29-.92-2.29-2.89s1-2.91,2.29-2.91,2.27,1,2.27,2.91-1,2.89-2.27,2.89m0,.78c1.7,0,3.1-1.12,3.1-3.67s-1.4-3.7-3.1-3.7-3.12,1.15-3.12,3.7,1.4,3.67,3.12,3.67m-8.55-7.19h-.9l2.44,7h.73l2.45-7h-.89l-1.92,5.62Zm-2.74,5.62a3.21,3.21,0,0,1-2,.73c-.93,0-1.26-.56-1.26-1.33s.7-1.43,1.84-1.43a4,4,0,0,1,1.41.22Zm.1,1.43h.73v-4.21c0-2.32-1.06-3-2.24-3a4.64,4.64,0,0,0-2.23.6v.81a4.86,4.86,0,0,1,2.23-.59c.73,0,1.41.54,1.41,2.2v.19a4.89,4.89,0,0,0-1.38-.19c-1.63,0-2.7.75-2.7,2.18,0,1.27.53,2.17,2.09,2.17a3.43,3.43,0,0,0,2-.76Zm-11-1.59v1a7,7,0,0,0,2.62.73c1.75,0,3-.62,3.1-2.65.08-1.8-1.31-2.39-3.2-3.09l-.48-.17a1.77,1.77,0,0,1-1.2-1.65c.05-1.16.79-1.9,2.35-1.9a6.64,6.64,0,0,1,2.17.58v-1a7,7,0,0,0-2.17-.51c-2.13,0-3.18,1.06-3.22,2.72a2.64,2.64,0,0,0,1.81,2.55l.52.19c1.38.54,2.53,1.08,2.56,2.16-.07,1.29-1,1.86-2.24,1.86a6.49,6.49,0,0,1-2.26-.62Zm-1.15-2.93h-4v.82h4Zm-7.75-4.72a.47.47,0,0,0,.51.5.51.51,0,1,0-.51-.5m-1.46,0a.46.46,0,0,0,.51.5.51.51,0,1,0,0-1,.45.45,0,0,0-.51.52m2.68,6a4,4,0,0,0-1.41-.22c-1.13,0-1.83.54-1.83,1.43s.32,1.33,1.25,1.33a3.21,3.21,0,0,0,2-.73Zm0,2.62a3.43,3.43,0,0,1-2,.76c-1.56,0-2.08-.9-2.08-2.17,0-1.43,1.06-2.18,2.69-2.18a4.89,4.89,0,0,1,1.38.19v-.19c0-1.66-.68-2.2-1.41-2.2a4.86,4.86,0,0,0-2.23.59v-.81a4.64,4.64,0,0,1,2.23-.6c1.18,0,2.24.7,2.24,3v4.21h-.72Zm-4.73-.16c-1,0-1.46-.23-1.46-1.13V96.79h-.83v8.43c0,1.57.66,2,2.29,2Zm-6.54-5.59c1.08,0,1.82,1,2,2.45h-4c.17-1.47,1.06-2.45,2-2.45m2.84,3.19c0-2.49-1.06-4-2.84-4-1.47,0-2.84,1.29-2.84,3.62,0,2.62,1.3,3.73,3,3.73a9.28,9.28,0,0,0,2.21-.35v-.81a9,9,0,0,1-2.21.35c-1.09,0-2-.86-2.11-2.51Zm-8.81-3.17v4.45c0,1.56.67,2,2.29,2v-.77c-1.42,0-1.46-.62-1.46-1.28v-4.38h1.44v-.7h-1.44V98l-.83.3v1.81h-1.09v.7Zm-6.26,1.69h3.95v-.86h-3.95V97.94h4.22v-.86h-5.08v8.23c0,1.36.55,1.79,1.81,1.82h3.27v-.86H143.6c-.67,0-.94-.25-.95-1Z"></path><path class="cls-5" d="M69.31,50.47a11.09,11.09,0,0,1,15.68,0L95.36,60.84a11.09,11.09,0,0,1,0,15.68l-11,11a2.56,2.56,0,0,1-3.62,0l-8.44-8.44a2.56,2.56,0,0,1,0-3.62l5.06-5.06a2.56,2.56,0,0,1,3.62,0l1.57,1.56,3.26-3.25L80.17,63a4.27,4.27,0,0,0-6,0L62.8,74.35a4.27,4.27,0,0,0,0,6L79.57,97.14a4.26,4.26,0,0,0,6,0L100.79,82a11.09,11.09,0,0,1,15.68,0l.84.84L90.42,109.68a11.09,11.09,0,0,1-15.68,0L42.42,77.36Z"></path></g></svg>